<mxfile host="65bd71144e">
    <diagram id="Y0o2fV0B2bu8UfCVWpEu" name="페이지-1">
        <mxGraphModel dx="1054" dy="617" grid="1" gridSize="10" guides="1" tooltips="1" connect="1" arrows="1" fold="1" page="1" pageScale="1" pageWidth="827" pageHeight="1169" math="0" shadow="0">
            <root>
                <mxCell id="0"/>
                <mxCell id="1" parent="0"/>
                <mxCell id="20" value="" style="rounded=0;whiteSpace=wrap;html=1;fontSize=15;strokeColor=#000000;strokeWidth=2;fillColor=none;" vertex="1" parent="1">
                    <mxGeometry x="20" y="195" width="440" height="215" as="geometry"/>
                </mxCell>
                <mxCell id="24" value="" style="rounded=0;whiteSpace=wrap;html=1;fontSize=15;strokeColor=#000000;strokeWidth=2;fillColor=none;" vertex="1" parent="1">
                    <mxGeometry x="20" y="440" width="440" height="215" as="geometry"/>
                </mxCell>
                <mxCell id="3" value="" style="fontColor=#0066CC;verticalAlign=top;verticalLabelPosition=bottom;labelPosition=center;align=center;html=1;outlineConnect=0;fillColor=#CCCCCC;strokeColor=#000000;gradientColor=none;gradientDirection=north;strokeWidth=2;shape=mxgraph.networks.users;" vertex="1" parent="1">
                    <mxGeometry x="70" y="260" width="90" height="100" as="geometry"/>
                </mxCell>
                <mxCell id="4" value="&lt;span style=&quot;font-size: 15px;&quot;&gt;이전 버전 서비스&lt;/span&gt;" style="rounded=0;whiteSpace=wrap;html=1;strokeColor=default;fillColor=none;fontSize=15;fontStyle=1;strokeWidth=2;" vertex="1" parent="1">
                    <mxGeometry x="270" y="240" width="156" height="60" as="geometry"/>
                </mxCell>
                <mxCell id="5" value="&lt;span style=&quot;font-size: 15px&quot;&gt;새 버전 서비스&lt;/span&gt;" style="rounded=0;whiteSpace=wrap;html=1;strokeColor=#00994D;fillColor=none;fontSize=15;fontStyle=1;strokeWidth=2;" vertex="1" parent="1">
                    <mxGeometry x="270" y="320" width="156" height="60" as="geometry"/>
                </mxCell>
                <mxCell id="9" value="" style="endArrow=classic;html=1;fontSize=15;strokeWidth=2;" edge="1" parent="1">
                    <mxGeometry width="50" height="50" relative="1" as="geometry">
                        <mxPoint x="180" y="300" as="sourcePoint"/>
                        <mxPoint x="260" y="270" as="targetPoint"/>
                    </mxGeometry>
                </mxCell>
                <mxCell id="10" value="" style="endArrow=classic;html=1;fontSize=15;strokeWidth=2;" edge="1" parent="1">
                    <mxGeometry width="50" height="50" relative="1" as="geometry">
                        <mxPoint x="180" y="330" as="sourcePoint"/>
                        <mxPoint x="260" y="350" as="targetPoint"/>
                    </mxGeometry>
                </mxCell>
                <mxCell id="11" value="95% 사용자" style="text;html=1;strokeColor=none;fillColor=none;align=center;verticalAlign=middle;whiteSpace=wrap;rounded=0;fontSize=15;fontStyle=1;rotation=-20;" vertex="1" parent="1">
                    <mxGeometry x="170" y="255" width="90" height="30" as="geometry"/>
                </mxCell>
                <mxCell id="12" value="5% 사용자" style="text;html=1;strokeColor=none;fillColor=none;align=center;verticalAlign=middle;whiteSpace=wrap;rounded=0;fontSize=15;fontStyle=1;rotation=15;" vertex="1" parent="1">
                    <mxGeometry x="170" y="338" width="90" height="30" as="geometry"/>
                </mxCell>
                <mxCell id="13" value="" style="fontColor=#0066CC;verticalAlign=top;verticalLabelPosition=bottom;labelPosition=center;align=center;html=1;outlineConnect=0;fillColor=#CCCCCC;strokeColor=#000000;gradientColor=none;gradientDirection=north;strokeWidth=2;shape=mxgraph.networks.users;" vertex="1" parent="1">
                    <mxGeometry x="60" y="505" width="90" height="100" as="geometry"/>
                </mxCell>
                <mxCell id="14" value="&lt;span style=&quot;font-size: 15px;&quot;&gt;이전 버전 서비스&lt;/span&gt;" style="rounded=0;whiteSpace=wrap;html=1;strokeColor=#3333FF;fillColor=none;fontSize=15;fontStyle=1;strokeWidth=2;" vertex="1" parent="1">
                    <mxGeometry x="260" y="485" width="156" height="60" as="geometry"/>
                </mxCell>
                <mxCell id="15" value="&lt;span style=&quot;font-size: 15px&quot;&gt;새 버전 서비스&lt;/span&gt;" style="rounded=0;whiteSpace=wrap;html=1;strokeColor=#00994D;fillColor=none;fontSize=15;fontStyle=1;strokeWidth=2;" vertex="1" parent="1">
                    <mxGeometry x="260" y="565" width="156" height="60" as="geometry"/>
                </mxCell>
                <mxCell id="16" value="" style="endArrow=classic;html=1;fontSize=15;strokeWidth=2;exitX=0;exitY=1;exitDx=0;exitDy=0;" edge="1" parent="1" source="18">
                    <mxGeometry width="50" height="50" relative="1" as="geometry">
                        <mxPoint x="170" y="557" as="sourcePoint"/>
                        <mxPoint x="250" y="557" as="targetPoint"/>
                    </mxGeometry>
                </mxCell>
                <mxCell id="18" value="100% 사용자" style="text;html=1;strokeColor=none;fillColor=none;align=center;verticalAlign=middle;whiteSpace=wrap;rounded=0;fontSize=15;fontStyle=1;rotation=0;" vertex="1" parent="1">
                    <mxGeometry x="160" y="527" width="90" height="30" as="geometry"/>
                </mxCell>
                <mxCell id="21" value="카나리 배포" style="text;html=1;strokeColor=none;fillColor=none;align=center;verticalAlign=middle;whiteSpace=wrap;rounded=0;fontSize=15;fontStyle=1" vertex="1" parent="1">
                    <mxGeometry x="60" y="210" width="110" height="30" as="geometry"/>
                </mxCell>
                <mxCell id="23" value="블루그린 배포" style="text;html=1;strokeColor=none;fillColor=none;align=center;verticalAlign=middle;whiteSpace=wrap;rounded=0;fontSize=15;fontStyle=1" vertex="1" parent="1">
                    <mxGeometry x="60" y="455" width="110" height="30" as="geometry"/>
                </mxCell>
            </root>
        </mxGraphModel>
    </diagram>
</mxfile>